<?xml version="1.0" encoding="UTF-8" standalone="yes"?>
<!DOCTYPE svg PUBLIC "-//W3C//DTD SVG 1.1//EN" "http://www.w3.org/Graphics/SVG/1.1/DTD/svg11.dtd">

<svg width="1500" height="1500" viewBox="0 0 1500 1500" xmlns="http://www.w3.org/2000/svg" xmlns:xlink="http://www.w3.org/1999/xlink" version="1.1" baseProfile="full">
    <defs>
        <linearGradient id="105553127385184105827995979744" x1="45.937500%" x2="45.937500%" y1="105.294121%" y2="-10.000000%">
            <stop offset="0%" style="stop-color:#25ff69;stop-opacity:1.000000"></stop>
            <stop offset="100%" style="stop-color:#00a07a;stop-opacity:1.000000"></stop>
        </linearGradient>
        <linearGradient id="105553127385184105827998058080" x1="432.432434%" x2="432.432434%" y1="100.000000%" y2="-1533.333374%">
            <stop offset="0%" style="stop-color:#25ff69;stop-opacity:1.000000"></stop>
            <stop offset="100%" style="stop-color:#00a07a;stop-opacity:1.000000"></stop>
        </linearGradient>
        <linearGradient id="105553127385184105827995992512" x1="-463.888885%" x2="-463.888885%" y1="1527.777832%" y2="-105.555557%">
            <stop offset="0%" style="stop-color:#25ff69;stop-opacity:1.000000"></stop>
            <stop offset="100%" style="stop-color:#00a07a;stop-opacity:1.000000"></stop>
        </linearGradient>
        <linearGradient id="105553127385184105828000159264" x1="59.687500%" x2="59.687500%" y1="114.285713%" y2="-2.380952%">
            <stop offset="0%" style="stop-color:#25ff69;stop-opacity:1.000000"></stop>
            <stop offset="100%" style="stop-color:#00a07a;stop-opacity:1.000000"></stop>
        </linearGradient>
        <linearGradient id="105553127385184105827997995360" x1="563.888916%" x2="563.888916%" y1="219.444443%" y2="-1413.888916%">
            <stop offset="0%" style="stop-color:#25ff69;stop-opacity:1.000000"></stop>
            <stop offset="100%" style="stop-color:#00a07a;stop-opacity:1.000000"></stop>
        </linearGradient>
        <linearGradient id="105553127385184105827998029184" x1="-347.222229%" x2="-347.222229%" y1="1633.333374%" y2="0.000000%">
            <stop offset="0%" style="stop-color:#25ff69;stop-opacity:1.000000"></stop>
            <stop offset="100%" style="stop-color:#00a07a;stop-opacity:1.000000"></stop>
        </linearGradient>
        <linearGradient id="105553127385184105828000108864" x1="57.065216%" x2="57.065216%" y1="135.245895%" y2="-25.409836%">
            <stop offset="0%" style="stop-color:#25ff69;stop-opacity:1.000000"></stop>
            <stop offset="100%" style="stop-color:#00a07a;stop-opacity:1.000000"></stop>
        </linearGradient>
        <linearGradient id="105553127385184105827995998560" x1="327.777771%" x2="327.777771%" y1="369.444458%" y2="-1263.888916%">
            <stop offset="0%" style="stop-color:#25ff69;stop-opacity:1.000000"></stop>
            <stop offset="100%" style="stop-color:#00a07a;stop-opacity:1.000000"></stop>
        </linearGradient>
        <linearGradient id="105553127385184105828000106400" x1="-205.555557%" x2="-205.555557%" y1="1411.111084%" y2="-222.222229%">
            <stop offset="0%" style="stop-color:#25ff69;stop-opacity:1.000000"></stop>
            <stop offset="100%" style="stop-color:#00a07a;stop-opacity:1.000000"></stop>
        </linearGradient>
    </defs>
    <g transform="scale(1,-1) translate(0,-1500)">
        <path d="M 9.474313 508.824779 L 9.474313 5.028612 L 5.499313 9.003612 L 318.628498 9.003612 L 318.628498 1.053612 L 5.499313 1.053612 C 3.303981 1.053612 1.524313 2.833280 1.524313 5.028612 L 1.524313 508.824779 L 9.474313 508.824779 Z" transform="scale(1.000000,1.000000) translate(603.000000,507.000000)" fill="url(#105553127385184105827995979744)" opacity="1.000000"></path>
        <path d="M 27.291182 18.019043 C 27.291182 22.874658 23.354928 26.810912 18.499313 26.810912 C 13.643698 26.810912 9.707444 22.874658 9.707444 18.019043 C 9.707444 13.163428 13.643698 9.227174 18.499313 9.227174 C 23.354928 9.227174 27.291182 13.163428 27.291182 18.019043 Z M 35.241182 18.019043 C 35.241182 8.772764 27.745592 1.277174 18.499313 1.277174 C 9.253034 1.277174 1.757443 8.772764 1.757443 18.019043 C 1.757443 27.265322 9.253034 34.760912 18.499313 34.760912 C 27.745592 34.760912 35.241182 27.265322 35.241182 18.019043 Z" transform="scale(1.000000,1.000000) translate(590.000000,1008.000000)" fill="url(#105553127385184105827998058080)" opacity="1.000000"></path>
        <path d="M 27.032432 18.020571 C 27.032432 22.837843 23.127262 26.743013 18.309990 26.743013 C 13.492718 26.743013 9.587548 22.837843 9.587548 18.020571 C 9.587548 13.203299 13.492718 9.298129 18.309990 9.298129 C 23.127262 9.298129 27.032432 13.203299 27.032432 18.020571 Z M 34.991482 18.020571 C 34.991482 8.807637 27.522923 1.339079 18.309990 1.339079 C 9.097056 1.339079 1.628498 8.807637 1.628498 18.020571 C 1.628498 27.233504 9.097056 34.702063 18.309990 34.702063 C 27.522923 34.702063 34.991482 27.233504 34.991482 18.020571 Z" transform="scale(1.000000,1.000000) translate(917.000000,494.000000)" fill="url(#105553127385184105827995992512)" opacity="1.000000"></path>
        <path d="M 9.728349 502.547859 L 9.728349 5.934787 L 5.753349 9.909787 L 318.882533 9.909787 L 318.882533 1.959787 L 5.753349 1.959787 C 3.558017 1.959787 1.778349 3.739455 1.778349 5.934787 L 1.778349 502.547859 L 9.728349 502.547859 Z" transform="scale(1.000000,1.000000) translate(559.000000,468.000000)" fill="url(#105553127385184105828000159264)" opacity="1.000000"></path>
        <path d="M 26.542257 17.990952 C 26.542257 22.846567 22.606003 26.782821 17.750388 26.782821 C 12.894772 26.782821 8.958519 22.846567 8.958519 17.990952 C 8.958519 13.135337 12.894772 9.199083 17.750388 9.199083 C 22.606003 9.199083 26.542257 13.135337 26.542257 17.990952 Z M 34.492257 17.990952 C 34.492257 8.744673 26.996667 1.249083 17.750388 1.249083 C 8.504108 1.249083 1.008518 8.744673 1.008518 17.990952 C 1.008518 27.237231 8.504108 34.732821 17.750388 34.732821 C 26.996667 34.732821 34.492257 27.237231 34.492257 17.990952 Z" transform="scale(1.000000,1.000000) translate(547.000000,965.000000)" fill="url(#105553127385184105827997995360)" opacity="1.000000"></path>
        <path d="M 27.032432 17.920580 C 27.032432 22.737852 23.127262 26.643022 18.309990 26.643022 C 13.492718 26.643022 9.587548 22.737852 9.587548 17.920580 C 9.587548 13.103308 13.492718 9.198138 18.309990 9.198138 C 23.127262 9.198138 27.032432 13.103308 27.032432 17.920580 Z M 34.991482 17.920580 C 34.991482 8.707646 27.522923 1.239088 18.309990 1.239088 C 9.097056 1.239088 1.628498 8.707646 1.628498 17.920580 C 1.628498 27.133513 9.097056 34.602072 18.309990 34.602072 C 27.522923 34.602072 34.991482 27.133513 34.991482 17.920580 Z" transform="scale(1.000000,1.000000) translate(875.000000,456.000000)" fill="url(#105553127385184105827998029184)" opacity="1.000000"></path>
        <path d="M 9.129890 364.736513 L 9.129890 5.092954 L 5.154889 9.067955 L 182.340445 9.067955 L 182.340445 1.117954 L 5.154889 1.117954 C 2.959557 1.117954 1.179889 2.897623 1.179889 5.092954 L 1.179889 364.736513 L 9.129890 364.736513 Z" transform="scale(1.000000,1.000000) translate(645.000000,549.000000)" fill="url(#105553127385184105828000108864)" opacity="1.000000"></path>
        <path d="M 26.952215 17.990952 C 26.952215 22.846567 23.015961 26.782821 18.160346 26.782821 C 13.304730 26.782821 9.368476 22.846567 9.368476 17.990952 C 9.368476 13.135337 13.304730 9.199083 18.160346 9.199083 C 23.015961 9.199083 26.952215 13.135337 26.952215 17.990952 Z M 34.902215 17.990952 C 34.902215 8.744673 27.406625 1.249083 18.160346 1.249083 C 8.914066 1.249083 1.418476 8.744673 1.418476 17.990952 C 1.418476 27.237231 8.914066 34.732821 18.160346 34.732821 C 27.406625 34.732821 34.902215 27.237231 34.902215 17.990952 Z" transform="scale(1.000000,1.000000) translate(632.000000,911.000000)" fill="url(#105553127385184105827995998560)" opacity="1.000000"></path>
        <path d="M 27.032432 18.080538 C 27.032432 22.897810 23.127262 26.802980 18.309990 26.802980 C 13.492718 26.802980 9.587548 22.897810 9.587548 18.080538 C 9.587548 13.263266 13.492718 9.358096 18.309990 9.358096 C 23.127262 9.358096 27.032432 13.263266 27.032432 18.080538 Z M 34.991482 18.080538 C 34.991482 8.867604 27.522923 1.399046 18.309990 1.399046 C 9.097056 1.399046 1.628498 8.867604 1.628498 18.080538 C 1.628498 27.293471 9.097056 34.762030 18.309990 34.762030 C 27.522923 34.762030 34.991482 27.293471 34.991482 18.080538 Z" transform="scale(1.000000,1.000000) translate(824.000000,536.000000)" fill="url(#105553127385184105828000106400)" opacity="1.000000"></path>
    </g>
</svg>